<mxfile host="app.diagrams.net" modified="2024-05-28T04:17:45.284Z" agent="Mozilla/5.0 (Macintosh; Intel Mac OS X 10_15_7) AppleWebKit/537.36 (KHTML, like Gecko) Chrome/124.0.0.0 Safari/537.36" version="24.4.4" etag="E4FsQoNHiytRagmGIK6-" type="github">
  <diagram name="第 1 页" id="6pWfwMOxoCKa5KmlU6Zl">
    <mxGraphModel>
      <root>
        <mxCell id="0" />
        <mxCell id="1" parent="0" />
      </root>
    </mxGraphModel>
  </diagram>
</mxfile>
